<svg width="16" height="16" viewBox="0 0 16 16" fill="none" xmlns="http://www.w3.org/2000/svg">
<path d="M4.14877 5.66669C4.14877 5.20198 4.26007 5.0523 4.71593 4.90457L7.30007 4.00842V0.233032L1.79981 2.09871C1.02264 2.36677 0.5 3.10444 0.5 3.93406V9.72579L3.70743 8.53124C3.97166 8.43341 4.14877 8.17611 4.14877 7.89141V5.66669Z" fill="#999999"/>
<path d="M10.5 5.84262L7.48124 7.09146C7.23256 7.19374 7.06586 7.46273 7.06586 7.76037V10.0862C7.06586 10.5721 6.96111 10.7285 6.53207 10.883L4.09993 11.8199V15.7669L9.27665 13.8164C10.0081 13.5372 10.5 12.766 10.5 11.8976V5.84262Z" fill="#999999"/>
</svg>
