<svg width="82" height="16" viewBox="0 0 82 16" fill="none" xmlns="http://www.w3.org/2000/svg">
<path d="M4.14877 5.66669C4.14877 5.20198 4.26007 5.0523 4.71593 4.90457L7.30007 4.00842V0.233032L1.79981 2.09871C1.02264 2.36677 0.5 3.10444 0.5 3.93406V9.72579L3.70743 8.53124C3.97166 8.43341 4.14877 8.17611 4.14877 7.89141V5.66669Z" fill="#2C2E38"/>
<path d="M10.5 5.84262L7.48124 7.09146C7.23256 7.19374 7.06586 7.46273 7.06586 7.76037V10.0862C7.06586 10.5721 6.96111 10.7285 6.53207 10.883L4.09993 11.8199V15.7669L9.27665 13.8164C10.0081 13.5372 10.5 12.766 10.5 11.8976V5.84262Z" fill="#2C2E38"/>
<path d="M20.7085 12.6523C19.5363 12.6523 18.618 12.3667 17.9536 11.7954C17.2935 11.2199 16.9634 10.4264 16.9634 9.41504H18.6074C18.6159 9.98633 18.8042 10.4328 19.1724 10.7544C19.5448 11.076 20.061 11.2368 20.7212 11.2368C21.3094 11.2368 21.7834 11.1141 22.1431 10.8687C22.5028 10.619 22.6826 10.2868 22.6826 9.87207C22.6826 9.53776 22.5472 9.26693 22.2764 9.05957C22.0055 8.84798 21.5549 8.67025 20.9243 8.52637L19.9087 8.29785C18.965 8.08203 18.2689 7.76253 17.8203 7.33936C17.3717 6.91618 17.1475 6.3724 17.1475 5.70801C17.1475 5.14518 17.2913 4.65218 17.5791 4.229C17.8711 3.80583 18.2773 3.47786 18.7979 3.24512C19.3226 3.00814 19.932 2.88965 20.626 2.88965C21.6839 2.88965 22.5218 3.15837 23.1396 3.6958C23.7617 4.23324 24.0854 4.97168 24.1108 5.91113H22.5176C22.4837 5.41178 22.2975 5.02035 21.959 4.73682C21.6204 4.45329 21.174 4.31152 20.6196 4.31152C20.0949 4.31152 19.6654 4.43424 19.3311 4.67969C18.9967 4.92513 18.8296 5.2404 18.8296 5.62549C18.8296 5.94287 18.9608 6.20101 19.2231 6.3999C19.4897 6.59456 19.932 6.76172 20.5498 6.90137L21.5083 7.12354C22.4901 7.33936 23.2095 7.66097 23.6665 8.08838C24.1235 8.51579 24.3521 9.0765 24.3521 9.77051C24.3521 10.3587 24.2039 10.8687 23.9077 11.3003C23.6115 11.7319 23.1904 12.0662 22.6445 12.3032C22.0986 12.536 21.4533 12.6523 20.7085 12.6523ZM27.386 8.71045V12.5H25.7864V5.79688H27.3606V6.8252C27.8261 6.05078 28.5116 5.66357 29.4172 5.66357C30.1197 5.66357 30.6931 5.88997 31.1374 6.34277C31.586 6.79557 31.8103 7.4515 31.8103 8.31055V12.5H30.2043V8.56445C30.2043 8.07357 30.0858 7.70117 29.8489 7.44727C29.6119 7.19336 29.2797 7.06641 28.8523 7.06641C28.4333 7.06641 28.0842 7.19759 27.8049 7.45996C27.5256 7.72233 27.386 8.13916 27.386 8.71045ZM36.0884 12.6333C35.5044 12.6333 34.9944 12.4873 34.5586 12.1953C34.1227 11.9033 33.7842 11.4971 33.5429 10.9766C33.306 10.4518 33.1875 9.84033 33.1875 9.14209C33.1875 8.45654 33.3081 7.85352 33.5493 7.33301C33.7905 6.80827 34.129 6.3999 34.5649 6.10791C35.0008 5.81169 35.5044 5.66357 36.0757 5.66357C36.5115 5.66357 36.9072 5.75244 37.2627 5.93018C37.6181 6.10791 37.8996 6.37451 38.1069 6.72998H38.1323V5.79688H39.7002V12.5H38.1323V11.4907H38.1133C37.9017 11.8716 37.6203 12.1572 37.269 12.3477C36.9178 12.5381 36.5242 12.6333 36.0884 12.6333ZM36.4629 11.2939C36.9876 11.2939 37.4066 11.0993 37.7197 10.71C38.0371 10.3164 38.1958 9.79378 38.1958 9.14209C38.1958 8.4904 38.0371 7.96989 37.7197 7.58057C37.4066 7.18701 36.9876 6.99023 36.4629 6.99023C35.9678 6.99023 35.5679 7.17643 35.2632 7.54883C34.9585 7.92122 34.8061 8.45231 34.8061 9.14209C34.8061 9.8361 34.9585 10.3693 35.2632 10.7417C35.5679 11.1099 35.9678 11.2939 36.4629 11.2939ZM41.3884 15.1533V5.79688H42.9626V6.72998H42.9817C43.1932 6.37451 43.4768 6.10791 43.8322 5.93018C44.1877 5.75244 44.5813 5.66357 45.0129 5.66357C45.5884 5.66357 46.092 5.81169 46.5237 6.10791C46.9595 6.3999 47.2981 6.80827 47.5393 7.33301C47.7847 7.85352 47.9074 8.45654 47.9074 9.14209C47.9074 9.84033 47.7868 10.4518 47.5456 10.9766C47.3086 11.4971 46.9722 11.9033 46.5363 12.1953C46.1005 12.4873 45.5905 12.6333 45.0066 12.6333C44.5665 12.6333 44.175 12.5381 43.8322 12.3477C43.4937 12.1572 43.2186 11.8716 43.0071 11.4907H42.988V15.1533H41.3884ZM44.6321 11.2939C45.1272 11.2939 45.5271 11.1099 45.8318 10.7417C46.1364 10.3693 46.2888 9.8361 46.2888 9.14209C46.2888 8.45231 46.1364 7.92122 45.8318 7.54883C45.5271 7.17643 45.1272 6.99023 44.6321 6.99023C44.1073 6.99023 43.6863 7.18701 43.3689 7.58057C43.0557 7.96989 42.8991 8.4904 42.8991 9.14209C42.8991 9.79378 43.0557 10.3164 43.3689 10.71C43.6863 11.0993 44.1073 11.2939 44.6321 11.2939ZM52.249 5.79688V7.08545H50.8779V10.5767C50.8779 10.8179 50.9266 10.985 51.0239 11.0781C51.1212 11.167 51.3011 11.2114 51.5634 11.2114H52.249V12.5H51.2841C50.5986 12.5 50.0929 12.3625 49.7671 12.0874C49.4412 11.8123 49.2783 11.387 49.2783 10.8115V3.96875H50.8779V5.79688H52.249ZM53.5119 12.5V5.79688H55.0544V6.90771H55.0734C55.1962 6.52686 55.3887 6.23698 55.6511 6.03809C55.9177 5.83496 56.2668 5.7334 56.6984 5.7334C56.8085 5.7334 56.9058 5.73763 56.9904 5.74609C57.0793 5.75033 57.1555 5.75456 57.2189 5.75879V7.18066C57.1597 7.1722 57.0581 7.16162 56.9143 7.14893C56.7704 7.13623 56.6201 7.12988 56.4636 7.12988C56.0827 7.12988 55.7611 7.26107 55.4987 7.52344C55.2406 7.78581 55.1115 8.17936 55.1115 8.7041V12.5H53.5119ZM61.4907 12.6333C60.5597 12.6333 59.8255 12.3836 59.288 11.8843C58.7506 11.3849 58.4819 10.7078 58.4819 9.85303V5.79688H60.0815V9.76416C60.0815 10.2381 60.2042 10.6084 60.4496 10.875C60.6951 11.1374 61.0421 11.2686 61.4907 11.2686C61.9435 11.2686 62.2905 11.1374 62.5317 10.875C62.7771 10.6084 62.8998 10.2381 62.8998 9.76416V5.79688H64.5058V9.85303C64.5058 10.7078 64.2371 11.3849 63.6996 11.8843C63.1622 12.3836 62.4259 12.6333 61.4907 12.6333ZM68.7839 12.6333C68.1999 12.6333 67.69 12.4873 67.2541 12.1953C66.8182 11.9033 66.4797 11.4971 66.2385 10.9766C66.0015 10.4518 65.883 9.84033 65.883 9.14209C65.883 8.45654 66.0036 7.85352 66.2448 7.33301C66.486 6.80827 66.8246 6.3999 67.2604 6.10791C67.6963 5.81169 68.1999 5.66357 68.7712 5.66357C69.207 5.66357 69.5985 5.75244 69.9455 5.93018C70.2925 6.10791 70.5739 6.38086 70.7897 6.74902H70.8024V3.04199H72.402V12.5H70.8278V11.478H70.8151C70.6035 11.8674 70.32 12.1572 69.9645 12.3477C69.6133 12.5381 69.2197 12.6333 68.7839 12.6333ZM69.1584 11.2939C69.6831 11.2939 70.1021 11.0993 70.4152 10.71C70.7326 10.3164 70.8913 9.79378 70.8913 9.14209C70.8913 8.4904 70.7326 7.96989 70.4152 7.58057C70.1021 7.18701 69.6831 6.99023 69.1584 6.99023C68.6633 6.99023 68.2634 7.17643 67.9587 7.54883C67.654 7.92122 67.5016 8.45231 67.5016 9.14209C67.5016 9.8361 67.654 10.3693 67.9587 10.7417C68.2634 11.1099 68.6633 11.2939 69.1584 11.2939ZM77.0419 12.6523C76.3733 12.6523 75.7935 12.5021 75.3027 12.2017C74.8118 11.9012 74.433 11.4886 74.1664 10.9639C73.9041 10.4349 73.7729 9.83187 73.7729 9.15479C73.7729 8.47347 73.9083 7.87044 74.1791 7.3457C74.4542 6.81673 74.8329 6.40202 75.3154 6.10156C75.7978 5.79688 76.3521 5.64453 76.9784 5.64453C77.6217 5.64453 78.1845 5.79264 78.6669 6.08887C79.1493 6.38509 79.5238 6.79557 79.7905 7.32031C80.0571 7.84082 80.1904 8.44385 80.1904 9.12939V9.56738H75.3407C75.3619 10.1133 75.5227 10.5534 75.8232 10.8877C76.1236 11.222 76.5426 11.3892 77.08 11.3892C77.482 11.3892 77.8142 11.3024 78.0766 11.1289C78.339 10.9512 78.5167 10.7184 78.6098 10.4307H80.1078C80.0232 10.8665 79.837 11.2516 79.5492 11.5859C79.2657 11.9202 78.9081 12.1826 78.4765 12.373C78.0448 12.5592 77.5667 12.6523 77.0419 12.6523ZM75.3534 8.46289H78.6542C78.6034 7.9847 78.4299 7.60807 78.1337 7.33301C77.8417 7.05371 77.4651 6.91406 77.0038 6.91406C76.5383 6.91406 76.1596 7.05371 75.8676 7.33301C75.5798 7.60807 75.4085 7.9847" fill="#2C2E38"/>
</svg>
